<?xml version="1.0" encoding="UTF-8" standalone="no"?>
<svg
   xmlns:dc="http://purl.org/dc/elements/1.1/"
   xmlns:cc="http://creativecommons.org/ns#"
   xmlns:rdf="http://www.w3.org/1999/02/22-rdf-syntax-ns#"
   xmlns:svg="http://www.w3.org/2000/svg"
   xmlns="http://www.w3.org/2000/svg"
   xmlns:xlink="http://www.w3.org/1999/xlink"
   xmlns:sodipodi="http://sodipodi.sourceforge.net/DTD/sodipodi-0.dtd"
   xmlns:inkscape="http://www.inkscape.org/namespaces/inkscape"
   width="207.46906"
   height="45.939877"
   viewBox="0 0 54.892853 12.154925"
   version="1.1"
   id="svg8"
   inkscape:version="1.0.2-2 (e86c870879, 2021-01-15)"
   sodipodi:docname="logo.svg">
  <title
     id="title1378">Logo</title>
  <defs
     id="defs2">
    <linearGradient
       inkscape:collect="always"
       id="linearGradient1079">
      <stop
         style="stop-color:#bea596;stop-opacity:1;"
         offset="0"
         id="stop1075" />
      <stop
         style="stop-color:#bea596;stop-opacity:0;"
         offset="1"
         id="stop1077" />
    </linearGradient>
    <linearGradient
       inkscape:collect="always"
       id="linearGradient1024">
      <stop
         style="stop-color:#336c73;stop-opacity:1"
         offset="0"
         id="stop1020" />
      <stop
         style="stop-color:#336c73;stop-opacity:0.80100756"
         offset="1"
         id="stop1022" />
    </linearGradient>
    <radialGradient
       inkscape:collect="always"
       xlink:href="#linearGradient1079"
       id="radialGradient1081"
       cx="72.529793"
       cy="70.295464"
       fx="72.529793"
       fy="70.295464"
       r="7.7840204"
       gradientTransform="matrix(1,0,0,0.5032199,35.011444,99.273961)"
       gradientUnits="userSpaceOnUse" />
    <linearGradient
       inkscape:collect="always"
       xlink:href="#linearGradient1024"
       id="linearGradient1169"
       gradientUnits="userSpaceOnUse"
       x1="43.848927"
       y1="70.295464"
       x2="84.368294"
       y2="70.295464"
       gradientTransform="translate(35.011444,64.352572)" />
    <linearGradient
       inkscape:collect="always"
       xlink:href="#linearGradient1024"
       id="linearGradient1171"
       gradientUnits="userSpaceOnUse"
       x1="43.848927"
       y1="70.295464"
       x2="84.368294"
       y2="70.295464"
       gradientTransform="translate(35.011444,64.352572)" />
    <linearGradient
       inkscape:collect="always"
       xlink:href="#linearGradient1024"
       id="linearGradient1173"
       gradientUnits="userSpaceOnUse"
       x1="43.848927"
       y1="70.295464"
       x2="84.368294"
       y2="70.295464"
       gradientTransform="translate(35.011444,64.352572)" />
    <linearGradient
       inkscape:collect="always"
       xlink:href="#linearGradient1024"
       id="linearGradient1175"
       gradientUnits="userSpaceOnUse"
       x1="43.848927"
       y1="70.295464"
       x2="84.368294"
       y2="70.295464"
       gradientTransform="translate(35.011444,64.352572)" />
    <linearGradient
       inkscape:collect="always"
       xlink:href="#linearGradient1024"
       id="linearGradient1177"
       gradientUnits="userSpaceOnUse"
       x1="43.848927"
       y1="70.295464"
       x2="84.368294"
       y2="70.295464"
       gradientTransform="translate(35.011444,64.352572)" />
    <filter
       inkscape:label="Black Hole"
       inkscape:menu="Morphology"
       inkscape:menu-tooltip="Creates a black light inside and outside"
       height="1.5"
       width="1.5"
       y="-0.25"
       x="-0.25"
       style="color-interpolation-filters:sRGB"
       id="filter1376">
      <feGaussianBlur
         stdDeviation="5"
         in="SourceAlpha"
         result="result1"
         id="feGaussianBlur1364" />
      <feComposite
         operator="arithmetic"
         k2="3.2"
         k1="-1"
         k4="-2"
         result="result3"
         in2="result1"
         id="feComposite1366"
         k3="0" />
      <feColorMatrix
         values="1 0 0 0 0 0 1 0 0 0 0 0 1 0 0 0 0 0 10 0 "
         result="result2"
         id="feColorMatrix1368" />
      <feComposite
         result="fbSourceGraphic"
         in="SourceGraphic"
         operator="out"
         in2="result2"
         id="feComposite1370" />
      <feBlend
         mode="multiply"
         in="result1"
         in2="fbSourceGraphic"
         result="result91"
         id="feBlend1372" />
      <feBlend
         mode="screen"
         in="fbSourceGraphic"
         in2="result91"
         id="feBlend1374" />
    </filter>
  </defs>
  <sodipodi:namedview
     id="base"
     pagecolor="#ffffff"
     bordercolor="#666666"
     borderopacity="1.0"
     inkscape:pageopacity="0.0"
     inkscape:pageshadow="2"
     inkscape:zoom="3.959798"
     inkscape:cx="5.3627716"
     inkscape:cy="41.534267"
     inkscape:document-units="mm"
     inkscape:current-layer="layer1"
     inkscape:document-rotation="0"
     showgrid="false"
     inkscape:snap-bbox="false"
     inkscape:snap-global="false"
     inkscape:window-width="2560"
     inkscape:window-height="1027"
     inkscape:window-x="-8"
     inkscape:window-y="-8"
     inkscape:window-maximized="1"
     fit-margin-top="0"
     fit-margin-left="0"
     fit-margin-right="0"
     fit-margin-bottom="0"
     units="px" />
  <metadata
     id="metadata5">
    <rdf:RDF>
      <cc:Work
         rdf:about="">
        <dc:format>image/svg+xml</dc:format>
        <dc:type
           rdf:resource="http://purl.org/dc/dcmitype/StillImage" />
        <dc:title>Logo</dc:title>
      </cc:Work>
    </rdf:RDF>
  </metadata>
  <g
     inkscape:label="Layer 1"
     inkscape:groupmode="layer"
     id="layer1"
     transform="translate(0.67946071,-16.355833)">
    <g
       id="g1316"
       style="filter:url(#filter1376)"
       transform="translate(-37.160887,-60.859084)"
       inkscape:export-xdpi="1337.4001"
       inkscape:export-ydpi="1337.4001">
      <g
         id="g1285">
        <path
           id="path1102"
           style="font-style:normal;font-variant:normal;font-weight:normal;font-stretch:normal;font-size:10.5833px;line-height:1.25;font-family:'Arial Rounded MT Bold';-inkscape-font-specification:'Arial Rounded MT Bold, Normal';font-variant-ligatures:normal;font-variant-caps:normal;font-variant-numeric:normal;font-variant-east-asian:normal;text-align:start;letter-spacing:-0.873125px;word-spacing:0px;writing-mode:lr-tb;text-anchor:start;fill:#000000;fill-opacity:1;stroke:none;stroke-width:0.755906;stroke-linejoin:round;stroke-miterlimit:4;stroke-dasharray:none"
           d="m 270.22461,305.61328 -4.23828,11.81445 h 2.00586 l 3.24414,-9.04492 z"
           transform="scale(0.26458333)" />
        <path
           id="path1227"
           style="font-style:normal;font-variant:normal;font-weight:normal;font-stretch:normal;font-size:10.5833px;line-height:1.25;font-family:'Arial Rounded MT Bold';-inkscape-font-specification:'Arial Rounded MT Bold, Normal';font-variant-ligatures:normal;font-variant-caps:normal;font-variant-numeric:normal;font-variant-east-asian:normal;text-align:start;letter-spacing:-0.873125px;word-spacing:0px;writing-mode:lr-tb;text-anchor:start;fill:#000000;fill-opacity:1;stroke:none;stroke-width:0.755906;stroke-linejoin:round;stroke-miterlimit:4;stroke-dasharray:none"
           d="m 290.46094,304.57812 v 19.43165 h 1.64062 v -18.42188 h 3.82813 c 1.77083,0 3.28125,0.19531 4.53125,0.58594 0.0863,0.0261 0.15393,0.0999 0.23828,0.13086 -0.0564,-0.0521 -0.0987,-0.14046 -0.15625,-0.18946 -0.52409,-0.44596 -1.09766,-0.76237 -1.72266,-0.95117 -1.24999,-0.39062 -2.76042,-0.58594 -4.53125,-0.58594 z"
           transform="scale(0.26458333)" />
        <path
           id="path1225"
           style="font-style:normal;font-variant:normal;font-weight:normal;font-stretch:normal;font-size:10.5833px;line-height:1.25;font-family:'Arial Rounded MT Bold';-inkscape-font-specification:'Arial Rounded MT Bold, Normal';font-variant-ligatures:normal;font-variant-caps:normal;font-variant-numeric:normal;font-variant-east-asian:normal;text-align:start;letter-spacing:-0.873125px;word-spacing:0px;writing-mode:lr-tb;text-anchor:start;fill:#000000;fill-opacity:1;stroke:none;stroke-width:0.755906;stroke-linejoin:round;stroke-miterlimit:4;stroke-dasharray:none"
           d="m 230.22461,304.34375 v 7.86914 h 1.64062 v -6.85937 h 5.35157 c 1.76287,0 2.80987,0.15655 3.54297,0.38086 -0.34888,-0.36464 -0.67658,-0.75055 -1.17969,-0.96094 -0.67708,-0.28646 -2.01173,-0.42969 -4.00391,-0.42969 z"
           transform="scale(0.26458333)" />
        <path
           id="path1223"
           style="font-style:normal;font-variant:normal;font-weight:normal;font-stretch:normal;font-size:10.5833px;line-height:1.25;font-family:'Arial Rounded MT Bold';-inkscape-font-specification:'Arial Rounded MT Bold, Normal';font-variant-ligatures:normal;font-variant-caps:normal;font-variant-numeric:normal;font-variant-east-asian:normal;text-align:start;letter-spacing:-0.873125px;word-spacing:0px;writing-mode:lr-tb;text-anchor:start;fill:#000000;fill-opacity:1;stroke:none;stroke-width:0.755906;stroke-linejoin:round;stroke-miterlimit:4;stroke-dasharray:none"
           d="m 286.95312,328.34766 c 0.18946,0.28693 0.31422,0.6178 0.63672,0.81445 0.53385,0.3125 1.32813,0.46875 2.38282,0.46875 h 7.55859 c 1.3151,0 2.49349,-0.0846 3.53516,-0.25391 1.05468,-0.16927 2.03776,-0.46224 2.94921,-0.8789 0.91146,-0.41667 1.75131,-0.97006 2.51954,-1.66016 0.97656,-0.89843 1.77734,-1.91406 2.40234,-3.04687 0.625,-1.14583 1.08724,-2.4284 1.38672,-3.84766 0.29948,-1.41927 0.44922,-2.98829 0.44922,-4.70703 0,-5.20832 -1.4909,-9.08855 -4.47266,-11.64063 -0.69695,-0.60983 -1.45866,-1.06176 -2.25195,-1.43554 0.20016,0.15063 0.41853,0.25708 0.61133,0.42578 0.74544,0.63802 1.39795,1.35807 1.95703,2.16211 0.55908,0.80403 1.02376,1.69206 1.39648,2.66211 0.37272,0.97005 0.65349,2.02214 0.83985,3.1582 0.18636,1.13606 0.27929,2.35417 0.27929,3.65625 0,1.71874 -0.14974,3.28777 -0.44922,4.70703 -0.29947,1.41927 -0.76172,2.70183 -1.38671,3.84766 -0.625,1.13281 -1.42579,2.14844 -2.40235,3.04687 -0.76823,0.6901 -1.60807,1.24349 -2.51953,1.66016 -0.91146,0.41666 -1.89453,0.70963 -2.94922,0.8789 -1.04166,0.16928 -2.22006,0.25391 -3.53516,0.25391 h -7.55859 c -0.61035,0 -0.94298,-0.16683 -1.37891,-0.27148 z"
           transform="scale(0.26458333)" />
        <path
           id="path1219"
           style="font-style:normal;font-variant:normal;font-weight:normal;font-stretch:normal;font-size:10.5833px;line-height:1.25;font-family:'Arial Rounded MT Bold';-inkscape-font-specification:'Arial Rounded MT Bold, Normal';font-variant-ligatures:normal;font-variant-caps:normal;font-variant-numeric:normal;font-variant-east-asian:normal;text-align:start;letter-spacing:-0.873125px;word-spacing:0px;writing-mode:lr-tb;text-anchor:start;fill:#000000;fill-opacity:1;stroke:none;stroke-width:0.755906;stroke-linejoin:round;stroke-miterlimit:4;stroke-dasharray:none"
           d="m 284.76953,325.5957 c 0.0389,0.40826 0.0418,0.89487 0.125,1.20703 0.0559,0.18914 0.25204,0.28314 0.34766,0.44532 -0.0222,-0.37278 -0.28043,-1.05657 -0.47266,-1.65235 z"
           transform="scale(0.26458333)" />
        <path
           id="path1217"
           style="font-style:normal;font-variant:normal;font-weight:normal;font-stretch:normal;font-size:10.5833px;line-height:1.25;font-family:'Arial Rounded MT Bold';-inkscape-font-specification:'Arial Rounded MT Bold, Normal';font-variant-ligatures:normal;font-variant-caps:normal;font-variant-numeric:normal;font-variant-east-asian:normal;text-align:start;letter-spacing:-0.873125px;word-spacing:0px;writing-mode:lr-tb;text-anchor:start;fill:#000000;fill-opacity:1;stroke:none;stroke-width:0.755906;stroke-linejoin:round;stroke-miterlimit:4;stroke-dasharray:none"
           d="m 280.35938,329.00586 c 0.038,0.0558 0.0842,0.16704 0.12109,0.21484 0.22135,0.27344 0.49479,0.48829 0.82031,0.64453 0.32552,0.16928 0.71615,0.25391 1.17188,0.25391 0.78124,0 1.44531,-0.27344 1.99218,-0.82031 0.5599,-0.5599 0.83985,-1.17188 0.83985,-1.83594 0,-0.0448 -0.0596,-0.16631 -0.0625,-0.21484 -0.0956,-0.16218 -0.29178,-0.25618 -0.34766,-0.44532 -0.0832,-0.31216 -0.0861,-0.79877 -0.125,-1.20703 -0.13953,-0.43246 -0.1146,-0.64925 -0.34375,-1.19922 l -7.48047,-18.47656 c -0.35155,-0.92448 -0.64452,-1.66016 -0.8789,-2.20703 -0.22136,-0.55989 -0.50131,-1.08073 -0.83985,-1.5625 -0.32552,-0.48177 -0.76172,-0.87239 -1.30859,-1.17187 -0.18452,-0.10802 -0.47813,-0.0914 -0.69531,-0.16211 0.10686,0.11922 0.27136,0.19107 0.36132,0.32421 0.33854,0.48177 0.61849,1.00261 0.83985,1.5625 0.23438,0.54688 0.52735,1.28256 0.8789,2.20704 l 7.48047,18.47461 c 0.58594,1.40624 0.87891,2.42838 0.87891,3.0664 0,0.66406 -0.27995,1.27605 -0.83984,1.83594 -0.54688,0.54687 -1.21094,0.82031 -1.99219,0.82031 -0.18302,0 -0.30869,-0.0743 -0.4707,-0.10156 z"
           transform="scale(0.26458333)" />
        <path
           id="path1215"
           style="font-style:normal;font-variant:normal;font-weight:normal;font-stretch:normal;font-size:10.5833px;line-height:1.25;font-family:'Arial Rounded MT Bold';-inkscape-font-specification:'Arial Rounded MT Bold, Normal';font-variant-ligatures:normal;font-variant-caps:normal;font-variant-numeric:normal;font-variant-east-asian:normal;text-align:start;letter-spacing:-0.873125px;word-spacing:0px;writing-mode:lr-tb;text-anchor:start;fill:#000000;fill-opacity:1;stroke:none;stroke-width:0.755906;stroke-linejoin:round;stroke-miterlimit:4;stroke-dasharray:none"
           d="m 259.39258,328.9082 c 0.0979,0.12783 0.063,0.28963 0.18945,0.41016 0.55989,0.53385 1.20443,0.80078 1.93359,0.80078 0.85938,0 1.47787,-0.2474 1.85547,-0.74219 0.37761,-0.50781 0.83334,-1.47787 1.36719,-2.91015 l 1.36719,-3.67188 h 10.38281 l -0.38476,-1.01172 h -11.64063 l -1.36719,3.67188 c -0.53385,1.43229 -0.98958,2.40234 -1.36718,2.91015 -0.37761,0.49479 -0.9961,0.74219 -1.85547,0.74219 -0.18122,0 -0.30971,-0.16624 -0.48047,-0.19922 z"
           transform="scale(0.26458333)" />
        <path
           id="path1211"
           style="font-style:normal;font-variant:normal;font-weight:normal;font-stretch:normal;font-size:10.5833px;line-height:1.25;font-family:'Arial Rounded MT Bold';-inkscape-font-specification:'Arial Rounded MT Bold, Normal';font-variant-ligatures:normal;font-variant-caps:normal;font-variant-numeric:normal;font-variant-east-asian:normal;text-align:start;letter-spacing:-0.873125px;word-spacing:0px;writing-mode:lr-tb;text-anchor:start;fill:#000000;fill-opacity:1;stroke:none;stroke-width:0.755906;stroke-linejoin:round;stroke-miterlimit:4;stroke-dasharray:none"
           d="m 257.60938,324.43164 c -0.10376,0.28061 -0.25096,0.64446 -0.31446,0.84766 -0.13022,0.41666 -0.19531,0.82031 -0.19531,1.21093 0,0.32761 0.27518,0.58484 0.40625,0.87891 0.035,-0.26128 0.10352,-0.48559 0.10352,-0.78516 z"
           transform="scale(0.26458333)" />
        <path
           id="path1209"
           style="font-style:normal;font-variant:normal;font-weight:normal;font-stretch:normal;font-size:10.5833px;line-height:1.25;font-family:'Arial Rounded MT Bold';-inkscape-font-specification:'Arial Rounded MT Bold, Normal';font-variant-ligatures:normal;font-variant-caps:normal;font-variant-numeric:normal;font-variant-east-asian:normal;text-align:start;letter-spacing:-0.873125px;word-spacing:0px;writing-mode:lr-tb;text-anchor:start;fill:#000000;fill-opacity:1;stroke:none;stroke-width:0.755906;stroke-linejoin:round;stroke-miterlimit:4;stroke-dasharray:none"
           d="m 252.38867,328.83203 c 0.0799,0.12909 0.12282,0.29838 0.22071,0.4082 0.54687,0.58594 1.23698,0.87891 2.07031,0.87891 0.87239,0 1.57552,-0.29297 2.10937,-0.87891 0.40862,-0.43779 0.61349,-1.09891 0.7168,-1.87109 -0.13107,-0.29407 -0.40625,-0.5513 -0.40625,-0.87891 0,-0.39062 0.0651,-0.79427 0.19531,-1.21093 0.0635,-0.2032 0.2107,-0.56705 0.31446,-0.84766 v -20.40625 c -10e-6,-1.18489 -0.27344,-2.0638 -0.82032,-2.63672 -0.39753,-0.43632 -0.92059,-0.65616 -1.50586,-0.76758 0.18894,0.24919 0.37222,0.50404 0.47852,0.84571 0.13672,0.43945 0.20508,0.95638 0.20508,1.54882 v 22.55665 c 0,0.59244 -0.0684,1.11002 -0.20508,1.55273 -0.13672,0.44271 -0.3418,0.81055 -0.61524,1.10352 -0.26692,0.29296 -0.57617,0.51367 -0.92773,0.66015 -0.35156,0.14649 -0.74544,0.21875 -1.18164,0.21875 -0.26102,0 -0.41552,-0.2179 -0.64844,-0.27539 z"
           transform="scale(0.26458333)" />
        <path
           id="path1205"
           style="font-style:normal;font-variant:normal;font-weight:normal;font-stretch:normal;font-size:10.5833px;line-height:1.25;font-family:'Arial Rounded MT Bold';-inkscape-font-specification:'Arial Rounded MT Bold, Normal';font-variant-ligatures:normal;font-variant-caps:normal;font-variant-numeric:normal;font-variant-east-asian:normal;text-align:start;letter-spacing:-0.873125px;word-spacing:0px;writing-mode:lr-tb;text-anchor:start;fill:#000000;fill-opacity:1;stroke:none;stroke-width:0.755906;stroke-linejoin:round;stroke-miterlimit:4;stroke-dasharray:none"
           d="m 181.20117,301.20508 c 0.033,0.058 0.10579,0.0681 0.13477,0.13086 0.23438,0.50781 0.50131,1.33464 0.80078,2.48047 l 4.16016,15.68164 0.68554,-2.58594 -3.20508,-12.08594 c -0.29947,-1.14583 -0.5664,-1.97265 -0.80078,-2.48047 -0.23437,-0.50782 -0.59896,-0.85938 -1.09375,-1.05468 -0.14013,-0.0568 -0.49083,-0.0457 -0.68164,-0.0859 z"
           transform="scale(0.26458333)" />
        <path
           id="path1203"
           style="font-style:normal;font-variant:normal;font-weight:normal;font-stretch:normal;font-size:10.5833px;line-height:1.25;font-family:'Arial Rounded MT Bold';-inkscape-font-specification:'Arial Rounded MT Bold, Normal';font-variant-ligatures:normal;font-variant-caps:normal;font-variant-numeric:normal;font-variant-east-asian:normal;text-align:start;letter-spacing:-0.873125px;word-spacing:0px;writing-mode:lr-tb;text-anchor:start;fill:#000000;fill-opacity:1;stroke:none;stroke-width:0.755906;stroke-linejoin:round;stroke-miterlimit:4;stroke-dasharray:none"
           d="m 179.46094,312.58203 -1.64063,-6.51953 v 19.76367 c 0,1.09375 -0.24739,1.91407 -0.74219,2.46094 -0.48176,0.54687 -1.1263,0.82031 -1.93359,0.82031 -0.15693,0 -0.23939,-0.13861 -0.38476,-0.16015 0.063,0.0944 0.0373,0.28926 0.11132,0.37109 0.49479,0.53385 1.13282,0.80078 1.91407,0.80078 0.80729,0 1.45182,-0.27344 1.93359,-0.82031 0.49479,-0.54687 0.74219,-1.36719 0.74219,-2.46094 z"
           transform="scale(0.26458333)" />
        <path
           id="path1201"
           style="font-style:normal;font-variant:normal;font-weight:normal;font-stretch:normal;font-size:10.5833px;line-height:1.25;font-family:'Arial Rounded MT Bold';-inkscape-font-specification:'Arial Rounded MT Bold, Normal';font-variant-ligatures:normal;font-variant-caps:normal;font-variant-numeric:normal;font-variant-east-asian:normal;text-align:start;letter-spacing:-0.873125px;word-spacing:0px;writing-mode:lr-tb;text-anchor:start;fill:#000000;fill-opacity:1;stroke:none;stroke-width:0.755906;stroke-linejoin:round;stroke-miterlimit:4;stroke-dasharray:none"
           d="m 194.77344,313.59375 v -7.53125 l -4.58985,18.24023 c -0.29948,1.1849 -0.54687,2.0573 -0.74218,2.61719 -0.1823,0.54688 -0.52736,1.04818 -1.03516,1.50391 -0.50781,0.45573 -1.21094,0.68359 -2.10937,0.68359 -0.33476,0 -0.56579,-0.14945 -0.84961,-0.22265 0.22697,0.28624 0.44087,0.58311 0.77148,0.78515 0.46875,0.29948 1.04167,0.44922 1.71875,0.44922 0.89843,0 1.60156,-0.22787 2.10938,-0.68359 0.5078,-0.45573 0.85285,-0.95703 1.03515,-1.50391 0.19531,-0.55989 0.44271,-1.43229 0.74219,-2.61719 z"
           transform="scale(0.26458333)" />
        <path
           id="path1197"
           style="font-style:normal;font-variant:normal;font-weight:normal;font-stretch:normal;font-size:10.5833px;line-height:1.25;font-family:'Arial Rounded MT Bold';-inkscape-font-specification:'Arial Rounded MT Bold, Normal';font-variant-ligatures:normal;font-variant-caps:normal;font-variant-numeric:normal;font-variant-east-asian:normal;text-align:start;letter-spacing:-0.873125px;word-spacing:0px;writing-mode:lr-tb;text-anchor:start;fill:#000000;fill-opacity:1;stroke:none;stroke-width:0.755906;stroke-linejoin:round;stroke-miterlimit:4;stroke-dasharray:none"
           d="m 244.69922,328.89062 c 0.24094,0.27104 0.46788,0.56232 0.75976,0.75977 0.44271,0.3125 0.98959,0.46875 1.64063,0.46875 0.54687,0 1.02865,-0.11068 1.44531,-0.33203 0.41666,-0.20833 0.74218,-0.49479 0.97656,-0.85938 0.24741,-0.3776 0.3711,-0.75521 0.3711,-1.13281 0,-0.36458 -0.20834,-1.02865 -0.625,-1.99219 -0.40365,-0.97655 -0.97657,-2.0638 -1.71875,-3.26171 -0.72917,-1.21094 -1.5625,-2.35027 -2.5,-3.41797 -0.9375,-1.06771 -1.92058,-1.87501 -2.94922,-2.42188 2.44791,-0.53385 4.27084,-1.43881 5.46875,-2.71484 1.21093,-1.27604 1.81641,-2.98178 1.81641,-5.11719 0,-1.04166 -0.1823,-2.02474 -0.54688,-2.94922 -0.35156,-0.93749 -0.8724,-1.75781 -1.5625,-2.46094 -0.6901,-0.70312 -1.48438,-1.24349 -2.38281,-1.62109 -0.076,-0.0347 -0.17796,-0.0362 -0.25586,-0.0684 0.32572,0.23746 0.7089,0.38509 0.99805,0.67969 0.6901,0.70312 1.21093,1.52344 1.5625,2.46094 0.36458,0.92447 0.54687,1.90755 0.54687,2.94922 0,1.0677 -0.15234,2.02799 -0.45508,2.88085 -0.30273,0.85287 -0.75586,1.59636 -1.36133,2.23438 -0.59895,0.63802 -1.35417,1.18425 -2.26562,1.63672 -0.91146,0.45247 -1.97917,0.8112 -3.20313,1.07812 1.02865,0.54688 2.01173,1.35417 2.94922,2.42188 0.9375,1.0677 1.77084,2.20703 2.5,3.41797 0.74219,1.19791 1.31511,2.28516 1.71875,3.26172 0.41667,0.96353 0.625,1.6276 0.625,1.99218 0,0.37761 -0.12368,0.75521 -0.37109,1.13282 -0.23438,0.36458 -0.55991,0.65104 -0.97656,0.85937 -0.41667,0.22135 -0.89844,0.33203 -1.44532,0.33203 -0.30146,0 -0.50297,-0.14979 -0.75976,-0.2168 z"
           transform="scale(0.26458333)" />
        <path
           id="path1195"
           style="font-style:normal;font-variant:normal;font-weight:normal;font-stretch:normal;font-size:10.5833px;line-height:1.25;font-family:'Arial Rounded MT Bold';-inkscape-font-specification:'Arial Rounded MT Bold, Normal';font-variant-ligatures:normal;font-variant-caps:normal;font-variant-numeric:normal;font-variant-east-asian:normal;text-align:start;letter-spacing:-0.873125px;word-spacing:0px;writing-mode:lr-tb;text-anchor:start;fill:#000000;fill-opacity:1;stroke:none;stroke-width:0.755906;stroke-linejoin:round;stroke-miterlimit:4;stroke-dasharray:none"
           d="m 226.76367,329.00391 c 0.0383,0.053 0.0208,0.16755 0.0625,0.21679 0.50781,0.59896 1.22396,0.89844 2.14844,0.89844 0.85937,0 1.55599,-0.28646 2.08984,-0.85937 0.53385,-0.57292 0.80078,-1.46485 0.80078,-2.67579 v -9.19921 h 2.03125 c 0.86689,0 1.53905,0.1515 2.15625,0.3457 -0.41084,-0.35113 -0.81737,-0.77728 -1.23828,-0.94727 -0.67708,-0.27343 -1.52995,-0.41015 -2.55859,-0.41015 h -2.03125 v 9.19922 c 0,0.60546 -0.0677,1.13216 -0.20117,1.57812 -0.13347,0.44596 -0.33269,0.8112 -0.59961,1.09766 -0.53386,0.57291 -1.23047,0.85937 -2.08985,0.85937 -0.2142,0 -0.37847,-0.0714 -0.57031,-0.10351 z"
           transform="scale(0.26458333)" />
        <path
           id="path1191"
           style="font-style:normal;font-variant:normal;font-weight:normal;font-stretch:normal;font-size:10.5833px;line-height:1.25;font-family:'Arial Rounded MT Bold';-inkscape-font-specification:'Arial Rounded MT Bold, Normal';font-variant-ligatures:normal;font-variant-caps:normal;font-variant-numeric:normal;font-variant-east-asian:normal;text-align:start;letter-spacing:-0.873125px;word-spacing:0px;writing-mode:lr-tb;text-anchor:start;fill:#000000;fill-opacity:1;stroke:none;stroke-width:0.755906;stroke-linejoin:round;stroke-miterlimit:4;stroke-dasharray:none"
           d="m 224.82227,301.5957 c -0.0547,0.12043 -0.14738,0.19406 -0.18946,0.33008 -0.13997,0.45247 -0.20898,0.99219 -0.20898,1.61719 v 1.85937 c 0.19792,-0.33099 0.4875,-0.76369 0.60547,-1.00586 0.2474,-0.50781 0.37109,-1.01562 0.37109,-1.52343 0,-0.48665 -0.27815,-0.88543 -0.57812,-1.27735 z"
           transform="scale(0.26458333)" />
        <path
           id="path1189"
           style="font-style:normal;font-variant:normal;font-weight:normal;font-stretch:normal;font-size:10.5833px;line-height:1.25;font-family:'Arial Rounded MT Bold';-inkscape-font-specification:'Arial Rounded MT Bold, Normal';font-variant-ligatures:normal;font-variant-caps:normal;font-variant-numeric:normal;font-variant-east-asian:normal;text-align:start;letter-spacing:-0.873125px;word-spacing:0px;writing-mode:lr-tb;text-anchor:start;fill:#000000;fill-opacity:1;stroke:none;stroke-width:0.755906;stroke-linejoin:round;stroke-miterlimit:4;stroke-dasharray:none"
           d="m 212.66797,310.72461 -4.2207,-6.85547 c -0.82031,-1.34114 -1.43881,-2.23307 -1.85547,-2.67578 -0.28735,-0.32443 -0.79399,-0.39286 -1.2793,-0.48633 0.39866,0.49748 0.83239,1.07363 1.49219,2.15235 l 5.35156,8.68945 z"
           transform="scale(0.26458333)" />
        <path
           id="path1187"
           style="font-style:normal;font-variant:normal;font-weight:normal;font-stretch:normal;font-size:10.5833px;line-height:1.25;font-family:'Arial Rounded MT Bold';-inkscape-font-specification:'Arial Rounded MT Bold, Normal';font-variant-ligatures:normal;font-variant-caps:normal;font-variant-numeric:normal;font-variant-east-asian:normal;text-align:start;letter-spacing:-0.873125px;word-spacing:0px;writing-mode:lr-tb;text-anchor:start;fill:#000000;fill-opacity:1;stroke:none;stroke-width:0.755906;stroke-linejoin:round;stroke-miterlimit:4;stroke-dasharray:none"
           d="m 211.35742,328.82617 c 0.0839,0.13776 0.13012,0.31917 0.23438,0.4336 0.53385,0.57291 1.23047,0.85937 2.08984,0.85937 0.84635,0 1.54297,-0.29297 2.08984,-0.87891 0.54688,-0.58593 0.82032,-1.47135 0.82032,-2.65625 v -9.08203 l 7.16797,-10.99609 c 0.31333,-0.47 0.44694,-0.74042 0.66406,-1.10352 v -1.85937 c 0,-0.625 0.069,-1.16472 0.20898,-1.61719 0.0421,-0.13602 0.13473,-0.20965 0.18946,-0.33008 -0.0853,-0.11142 -0.0545,-0.25951 -0.16407,-0.36328 -0.38345,-0.38345 -0.90514,-0.49791 -1.44531,-0.57617 0.26763,0.37514 0.54492,0.74737 0.54492,1.20703 0,0.50781 -0.12368,1.01563 -0.37109,1.52344 -0.24738,0.50781 -0.67057,1.21094 -1.26953,2.10937 l -7.16797,10.99414 v 9.08204 c 0,0.59244 -0.0684,1.11002 -0.20508,1.55273 -0.13672,0.44271 -0.3418,0.81055 -0.61523,1.10352 -0.54688,0.58593 -1.2435,0.8789 -2.08985,0.8789 -0.28043,0 -0.43587,-0.22024 -0.68164,-0.28125 z"
           transform="scale(0.26458333)" />
        <path
           id="path1183"
           style="font-style:normal;font-variant:normal;font-weight:normal;font-stretch:normal;font-size:10.5833px;line-height:1.25;font-family:'Arial Rounded MT Bold';-inkscape-font-specification:'Arial Rounded MT Bold, Normal';font-variant-ligatures:normal;font-variant-caps:normal;font-variant-numeric:normal;font-variant-east-asian:normal;text-align:start;letter-spacing:-0.873125px;word-spacing:0px;writing-mode:lr-tb;text-anchor:start;fill:#000000;fill-opacity:1;stroke:none;stroke-width:0.755906;stroke-linejoin:round;stroke-miterlimit:4;stroke-dasharray:none"
           d="m 200.61719,301.62305 c -0.23579,-0.14519 -0.62696,-0.13893 -0.91797,-0.23047 0.0441,0.083 0.12604,0.11788 0.16211,0.21094 0.16276,0.41992 0.24414,0.94336 0.24414,1.56836 v 22.65429 c 0,1.09375 -0.2474,1.91407 -0.74219,2.46094 -0.48177,0.54687 -1.13282,0.82031 -1.95312,0.82031 -0.14554,0 -0.22366,-0.13467 -0.35938,-0.1543 0.0598,0.0877 0.0359,0.26881 0.10547,0.34571 0.49479,0.54687 1.1263,0.82031 1.89453,0.82031 0.82031,0 1.47136,-0.27344 1.95313,-0.82031 0.49479,-0.54687 0.74218,-1.36719 0.74218,-2.46094 v -21.90234 c -0.34437,-0.5778 -0.71969,-1.193 -0.89843,-1.56836 -0.24741,-0.54687 -0.3711,-1.02214 -0.3711,-1.42578 0,-0.12294 0.12322,-0.20168 0.14063,-0.31836 z"
           transform="scale(0.26458333)" />
        <path
           id="path1181"
           style="font-style:normal;font-variant:normal;font-weight:normal;font-stretch:normal;font-size:10.5833px;line-height:1.25;font-family:'Arial Rounded MT Bold';-inkscape-font-specification:'Arial Rounded MT Bold, Normal';font-variant-ligatures:normal;font-variant-caps:normal;font-variant-numeric:normal;font-variant-east-asian:normal;text-align:start;letter-spacing:-0.873125px;word-spacing:0px;writing-mode:lr-tb;text-anchor:start;fill:#000000;fill-opacity:1;stroke:none;stroke-width:0.755906;stroke-linejoin:round;stroke-miterlimit:4;stroke-dasharray:none"
           d="m 200.61719,301.62305 c -0.0174,0.11668 -0.14063,0.19542 -0.14063,0.31836 0,0.40364 0.12369,0.87891 0.3711,1.42578 0.17874,0.37536 0.55406,0.99056 0.89843,1.56836 v -0.75391 c 0,-1.24999 -0.32552,-2.08984 -0.97656,-2.51953 -0.0377,-0.0256 -0.11316,-0.0149 -0.15234,-0.0391 z"
           transform="scale(0.26458333)" />
        <g
           id="g1094"
           transform="translate(1.3029389,12.528259)">
          <g
             id="g1237"
             transform="translate(0.16704346,0.33408691)">
            <g
               aria-label="MYRIAD"
               id="text847"
               style="font-style:normal;font-variant:normal;font-weight:normal;font-stretch:normal;font-size:10.5833px;line-height:1.25;font-family:'Arial Rounded MT Bold';-inkscape-font-specification:'Arial Rounded MT Bold, Normal';font-variant-ligatures:normal;font-variant-caps:normal;font-variant-numeric:normal;font-variant-east-asian:normal;text-align:start;letter-spacing:-0.873125px;word-spacing:0px;writing-mode:lr-tb;text-anchor:start;fill:url(#linearGradient1177);fill-opacity:1;stroke:none;stroke-width:0.2;stroke-linejoin:round;stroke-miterlimit:4;stroke-dasharray:none">
              <path
                 d="m 46.785407,72.94129 -1.214392,-4.826563 v 5.229638 q 0,0.434081 -0.19637,0.651121 -0.191202,0.217041 -0.511595,0.217041 -0.310057,0 -0.506427,-0.211873 -0.19637,-0.21704 -0.19637,-0.656289 v -5.994447 q 0,-0.496092 0.258381,-0.666624 0.258382,-0.175699 0.69763,-0.175699 h 0.475422 q 0.428913,0 0.620115,0.07751 0.19637,0.07751 0.289387,0.279052 0.09302,0.201538 0.211873,0.656289 l 1.100704,4.149604 1.100705,-4.149604 q 0.118855,-0.454751 0.211872,-0.656289 0.09302,-0.201537 0.28422,-0.279052 0.19637,-0.07751 0.625283,-0.07751 h 0.475421 q 0.439249,0 0.69763,0.175699 0.258381,0.170532 0.258381,0.666624 v 5.994447 q 0,0.434081 -0.19637,0.651121 -0.191202,0.217041 -0.516762,0.217041 -0.30489,0 -0.50126,-0.217041 -0.19637,-0.21704 -0.19637,-0.651121 v -5.229638 l -1.214392,4.826563 q -0.118856,0.470254 -0.19637,0.692462 -0.07235,0.217041 -0.273884,0.397908 -0.201538,0.180867 -0.558104,0.180867 -0.268716,0 -0.454751,-0.118856 -0.186035,-0.113688 -0.289387,-0.294555 -0.103353,-0.180867 -0.165364,-0.397907 -0.05684,-0.222208 -0.118856,-0.459919 z"
                 style="font-style:normal;font-variant:normal;font-weight:normal;font-stretch:normal;font-size:10.5833px;font-family:'Arial Rounded MT Bold';-inkscape-font-specification:'Arial Rounded MT Bold, Normal';font-variant-ligatures:normal;font-variant-caps:normal;font-variant-numeric:normal;font-variant-east-asian:normal;fill:url(#linearGradient1169);fill-opacity:1;stroke:none;stroke-width:0.2;stroke-linejoin:round;stroke-miterlimit:4;stroke-dasharray:none"
                 id="path1028" />
              <path
                 d="M 53.860092,73.277186 V 70.87424 l -1.85001,-2.868033 q -0.242878,-0.387572 -0.346231,-0.604613 -0.09819,-0.21704 -0.09819,-0.377236 0,-0.263549 0.201538,-0.454751 0.206705,-0.191203 0.506427,-0.191203 0.315225,0 0.475422,0.180867 0.165364,0.1757 0.490924,0.707965 l 1.41593,2.299594 1.431433,-2.299594 q 0.12919,-0.211873 0.21704,-0.356566 0.08785,-0.144694 0.191202,-0.268717 0.10852,-0.12919 0.237711,-0.196369 0.129191,-0.06718 0.315225,-0.06718 0.289387,0 0.480589,0.191203 0.19637,0.186034 0.19637,0.43408 0,0.201538 -0.09819,0.403075 -0.09818,0.201538 -0.335895,0.558104 l -1.896519,2.909374 v 2.402946 q 0,0.470254 -0.217041,0.702797 -0.21704,0.232544 -0.552936,0.232544 -0.341063,0 -0.552936,-0.227376 -0.211873,-0.232543 -0.211873,-0.707965 z"
                 style="font-style:normal;font-variant:normal;font-weight:normal;font-stretch:normal;font-size:10.5833px;font-family:'Arial Rounded MT Bold';-inkscape-font-specification:'Arial Rounded MT Bold, Normal';font-variant-ligatures:normal;font-variant-caps:normal;font-variant-numeric:normal;font-variant-east-asian:normal;fill:url(#linearGradient1171);fill-opacity:1;stroke:none;stroke-width:0.2;stroke-linejoin:round;stroke-miterlimit:4;stroke-dasharray:none"
                 id="path1030" />
              <path
                 d="m 59.973599,70.843234 h -0.537434 v 2.433952 q 0,0.480589 -0.211872,0.707965 -0.211873,0.227376 -0.552936,0.227376 -0.366902,0 -0.568439,-0.237711 -0.201538,-0.237711 -0.201538,-0.69763 v -5.829083 q 0,-0.496092 0.222208,-0.7183 0.222208,-0.222208 0.7183,-0.222208 h 2.495964 q 0.516763,0 0.883664,0.04651 0.366902,0.04134 0.661456,0.175699 0.356567,0.149861 0.630451,0.428913 0.273884,0.279052 0.41341,0.651121 0.144694,0.366901 0.144694,0.780312 0,0.84749 -0.48059,1.353918 -0.475421,0.506427 -1.446935,0.7183 0.408242,0.21704 0.780311,0.640786 0.37207,0.423745 0.661457,0.904334 0.294554,0.475422 0.454751,0.862994 0.165364,0.382404 0.165364,0.527098 0,0.149861 -0.09819,0.299722 -0.09302,0.144694 -0.258381,0.227376 -0.165364,0.08785 -0.382405,0.08785 -0.258381,0 -0.43408,-0.124023 -0.1757,-0.118856 -0.30489,-0.30489 -0.124023,-0.186035 -0.341064,-0.547769 l -0.614947,-1.02319 Q 61.4412,71.649385 61.177651,71.35483 q -0.258382,-0.294555 -0.527098,-0.403075 -0.268717,-0.10852 -0.676959,-0.10852 z m 0.878496,-3.183258 h -1.41593 v 2.082553 h 1.374589 q 0.552936,0 0.930173,-0.09302 0.377237,-0.09819 0.573606,-0.32556 0.201538,-0.232544 0.201538,-0.635618 0,-0.315226 -0.160197,-0.552937 -0.160196,-0.242878 -0.444415,-0.361733 -0.268717,-0.113688 -1.059364,-0.113688 z"
                 style="font-style:normal;font-variant:normal;font-weight:normal;font-stretch:normal;font-size:10.5833px;font-family:'Arial Rounded MT Bold';-inkscape-font-specification:'Arial Rounded MT Bold, Normal';font-variant-ligatures:normal;font-variant-caps:normal;font-variant-numeric:normal;font-variant-east-asian:normal;fill:url(#linearGradient1173);fill-opacity:1;stroke:none;stroke-width:0.2;stroke-linejoin:round;stroke-miterlimit:4;stroke-dasharray:none"
                 id="path1032" />
              <path
                 id="path1038"
                 style="font-style:normal;font-variant:normal;font-weight:normal;font-stretch:normal;font-size:10.5833px;font-family:'Arial Rounded MT Bold';-inkscape-font-specification:'Arial Rounded MT Bold, Normal';font-variant-ligatures:normal;font-variant-caps:normal;font-variant-numeric:normal;font-variant-east-asian:normal;fill:url(#linearGradient1175);fill-opacity:1;stroke:none;stroke-width:0.2;stroke-linejoin:round;stroke-miterlimit:4;stroke-dasharray:none"
                 d="m 74.77946,66.507595 h 1.999872 q 0.780312,0 1.338415,0.144694 0.558104,0.144693 1.012855,0.5426 1.183387,1.012855 1.183387,3.079906 0,0.682127 -0.118856,1.245398 -0.118855,0.563271 -0.366901,1.018022 -0.248046,0.449584 -0.635618,0.80615 -0.30489,0.273884 -0.666624,0.439249 -0.361734,0.165364 -0.780312,0.232543 -0.41341,0.06718 -0.93534,0.06718 h -1.999872 q -0.418578,0 -0.63045,-0.124023 -0.211873,-0.129191 -0.279052,-0.356566 -0.06201,-0.232544 -0.06201,-0.599445 v -5.555199 q 0,-0.496092 0.222208,-0.7183 0.222208,-0.222208 0.7183,-0.222208 z m 0.594277,1.214392 v 5.141789 h 1.162716 q 0.382405,0 0.599445,-0.02067 0.21704,-0.02067 0.449584,-0.103352 0.232543,-0.08268 0.403075,-0.232543 0.769976,-0.651121 0.769976,-2.24275 0,-1.121375 -0.341063,-1.679479 -0.335896,-0.558104 -0.831988,-0.707965 -0.496092,-0.155029 -1.19889,-0.155029 z m -3.436675,5.503523 -0.361734,-0.950843 h -3.079905 l -0.361734,0.971513 q -0.211873,0.568439 -0.361734,0.769977 -0.149861,0.19637 -0.490924,0.19637 -0.289388,0 -0.511595,-0.211873 -0.222208,-0.211873 -0.222208,-0.480589 0,-0.155029 0.05168,-0.320393 0.05168,-0.165364 0.170532,-0.459919 l 1.93786,-4.919581 q 0.08268,-0.211872 0.196369,-0.506427 0.118856,-0.299723 0.248046,-0.496092 0.134359,-0.19637 0.346231,-0.315226 0.217041,-0.124023 0.532266,-0.124023 0.320393,0 0.532266,0.124023 0.21704,0.118856 0.346231,0.310058 0.134358,0.191202 0.222208,0.41341 0.09302,0.21704 0.232543,0.583942 l 1.979201,4.888575 q 0.232543,0.558104 0.232543,0.811317 0,0.263549 -0.222208,0.485757 -0.21704,0.217041 -0.527098,0.217041 -0.180867,0 -0.310057,-0.06718 -0.129191,-0.06201 -0.217041,-0.170531 -0.08785,-0.113688 -0.191202,-0.341064 -0.09819,-0.232543 -0.170532,-0.408242 z m -3.038564,-2.103224 h 2.26342 l -1.142045,-3.126414 z m -4.185982,2.1549 v -5.968609 q 0,-0.465086 0.211873,-0.697629 0.211873,-0.232544 0.547769,-0.232544 0.346231,0 0.558103,0.232544 0.217041,0.227375 0.217041,0.697629 v 5.968609 q 0,0.470254 -0.217041,0.702797 -0.211872,0.232544 -0.558103,0.232544 -0.330728,0 -0.547769,-0.232544 -0.211873,-0.23771 -0.211873,-0.702797 z" />
            </g>
            <g
               id="g1085">
              <path
                 id="path1026-2"
                 style="opacity:0.801008;fill:url(#radialGradient1081);fill-opacity:1;stroke:none;stroke-width:0.199999;stroke-linejoin:round;stroke-miterlimit:4;stroke-dasharray:none;stroke-opacity:0"
                 d="m 70.030205,66.378392 c -0.210151,0 -0.387572,0.04134 -0.532268,0.124024 -0.141247,0.07924 -0.256659,0.184311 -0.346231,0.315224 -0.08613,0.130913 -0.168809,0.296278 -0.248047,0.496094 -0.07579,0.196371 -0.14125,0.365181 -0.196371,0.506428 l -1.937866,4.919599 c -0.07923,0.196369 -0.136078,0.349676 -0.170532,0.45992 -0.03445,0.110242 -0.05168,0.217041 -0.05168,0.320392 0,0.179144 0.07407,0.339344 0.222208,0.480592 0.148137,0.141248 0.318672,0.211873 0.511598,0.211873 0.227375,0 0.391017,-0.06546 0.490924,-0.196371 0.09991,-0.134358 0.220488,-0.39102 0.361736,-0.769977 l 0.361735,-0.971519 h 3.079914 l 0.361736,0.950847 c 0.04823,0.117133 0.105074,0.253217 0.170532,0.408244 0.0689,0.151585 0.132638,0.265274 0.191204,0.341064 0.05856,0.07235 0.130913,0.129193 0.21704,0.170534 0.08613,0.04479 0.189481,0.06718 0.31006,0.06718 0.206706,0 0.382405,-0.07235 0.527098,-0.21704 0.14814,-0.148141 0.22221,-0.31006 0.22221,-0.48576 0,-0.168809 -0.07751,-0.43925 -0.232545,-0.81132 l -1.979208,-4.88859 c -0.09301,-0.2446 -0.170529,-0.439251 -0.232542,-0.583944 -0.05857,-0.148137 -0.132638,-0.285943 -0.22221,-0.413411 -0.08613,-0.127468 -0.201539,-0.23082 -0.346231,-0.310057 -0.141248,-0.08268 -0.318673,-0.124024 -0.532268,-0.124024 z m -4.258138,0.05478 a 7.7839741,7.7839741 0 0 0 -1.026295,3.862295 7.7839741,7.7839741 0 0 0 1.026295,3.862813 c 0.0979,-0.03869 0.18428,-0.09752 0.257866,-0.178281 0.144692,-0.15503 0.21704,-0.389298 0.21704,-0.702802 V 67.30857 c 0,-0.313502 -0.07235,-0.546047 -0.21704,-0.697632 -0.07358,-0.08076 -0.159975,-0.139079 -0.257866,-0.177766 z m 9.007202,0.07441 c -0.330729,0 -0.570163,0.07407 -0.718301,0.222208 -0.14814,0.14814 -0.22221,0.387575 -0.22221,0.718304 v 5.555215 c 0,0.244599 0.02066,0.444418 0.06201,0.599445 0.04479,0.151585 0.137803,0.270442 0.27905,0.356569 0.141251,0.08268 0.351402,0.124023 0.630455,0.124023 h 1.999877 c 0.347953,0 0.659736,-0.02238 0.935344,-0.06718 0.279051,-0.04479 0.539158,-0.122301 0.780315,-0.232542 0.241154,-0.110244 0.463364,-0.256662 0.666625,-0.439251 0.258382,-0.23771 0.470255,-0.506428 0.635619,-0.806151 0.165365,-0.303168 0.287666,-0.642512 0.366903,-1.018027 0.07924,-0.375515 0.118857,-0.790652 0.118857,-1.245401 0,-1.378035 -0.394468,-2.404679 -1.183392,-3.079917 -0.303167,-0.265271 -0.640789,-0.446141 -1.012856,-0.542602 -0.372071,-0.09646 -0.818214,-0.144693 -1.338422,-0.144693 z m 0.594278,1.214395 h 1.01286 c 0.468532,0 0.868164,0.05168 1.198893,0.15503 0.330726,0.09991 0.60806,0.335897 0.83199,0.707967 0.227375,0.37207 0.341064,0.931899 0.341064,1.679485 0,1.061085 -0.256662,1.808676 -0.769977,2.242756 -0.113689,0.09991 -0.24805,0.177425 -0.403077,0.232545 -0.15503,0.05512 -0.304893,0.08957 -0.449585,0.103352 -0.144693,0.01378 -0.344512,0.02066 -0.599448,0.02066 h -1.16272 z m -5.353677,0.273886 1.142048,3.126423 h -2.263426 z" />
            </g>
          </g>
        </g>
      </g>
    </g>
  </g>
</svg>
